<?xml version="1.0" standalone="no"?>
<!DOCTYPE svg PUBLIC "-//W3C//DTD SVG 20010904//EN"
 "http://www.w3.org/TR/2001/REC-SVG-20010904/DTD/svg10.dtd">
<svg version="1.0" xmlns="http://www.w3.org/2000/svg"
 width="512.000000pt" height="512.000000pt" viewBox="0 0 512.000000 512.000000"
 preserveAspectRatio="xMidYMid meet">
<metadata>
Created by potrace 1.14, written by Peter Selinger 2001-2017
</metadata>
<g transform="translate(0.000000,512.000000) scale(0.100000,-0.100000)"
fill="#000000" stroke="none">
<path d="M2410 4460 c0 -3 5 -11 12 -18 8 -8 8 -12 1 -12 -6 0 -13 7 -17 15
-3 8 -10 15 -16 15 -6 0 -8 -4 -5 -10 8 -13 -38 -24 -64 -15 -12 3 -46 -2 -78
-14 -32 -11 -70 -22 -85 -25 -47 -8 -53 -18 -22 -32 17 -8 20 -12 7 -9 -14 4
-30 -3 -49 -20 -15 -14 -23 -25 -19 -25 5 0 0 -7 -11 -15 -26 -20 -44 -18 -19
1 12 10 14 15 5 12 -8 -2 -22 -20 -31 -39 -9 -19 -20 -33 -23 -31 -10 4 -66
-40 -61 -49 3 -4 -17 -29 -43 -55 -27 -27 -59 -66 -71 -86 -12 -21 -26 -38
-31 -38 -8 0 -34 -59 -31 -73 1 -4 -5 -15 -14 -23 -8 -9 -15 -21 -15 -27 0 -7
4 -6 10 3 5 8 10 12 10 8 0 -12 -23 -58 -29 -58 -4 0 -7 -8 -8 -17 -1 -10 -5
-33 -9 -52 -6 -30 -5 -33 12 -27 17 6 17 6 1 -12 -23 -26 -23 -72 1 -72 10 0
25 6 34 13 23 17 59 148 63 228 4 77 13 94 71 139 21 17 65 55 96 84 92 87
192 116 399 116 116 0 117 0 121 24 3 14 -1 41 -8 61 -11 34 -11 36 9 33 32
-5 30 15 -7 59 -20 22 -33 42 -31 45 3 3 -8 5 -25 5 -16 0 -30 -3 -30 -7z"/>
<path d="M2584 4425 c-4 -8 -4 -24 -1 -35 3 -11 1 -20 -3 -20 -5 0 -2 -12 6
-27 7 -16 14 -38 14 -50 0 -14 6 -23 15 -23 9 0 15 -6 14 -12 -3 -24 1 -41 8
-35 3 4 13 1 22 -7 9 -8 66 -35 126 -60 61 -26 133 -62 160 -80 113 -75 229
-222 259 -330 10 -32 19 -56 21 -54 9 8 -26 154 -48 201 -13 29 -45 80 -71
115 -25 34 -46 67 -46 72 0 14 13 13 29 -2 10 -11 11 -9 5 5 -3 9 -31 34 -62
54 -32 22 -50 39 -42 41 8 3 16 0 18 -6 5 -17 27 -15 42 3 10 12 10 15 -2 15
-7 0 -20 9 -28 20 -9 12 -21 18 -32 14 -13 -4 -18 0 -18 15 0 12 -6 21 -14 21
-8 0 -21 9 -29 20 -9 13 -20 18 -31 14 -9 -3 -16 -1 -16 5 0 6 5 11 10 11 24
0 7 18 -22 24 -23 5 -29 9 -20 15 10 6 4 10 -20 16 -32 7 -32 7 -8 15 l25 7
-28 12 c-45 18 -70 14 -64 -8 3 -12 -1 -22 -10 -25 -22 -9 -23 -8 -20 16 1 14
-4 23 -15 26 -13 2 -18 -3 -19 -20 -1 -23 -1 -23 -8 2 -5 19 -14 25 -36 25
-16 1 -30 6 -33 13 -5 17 -21 15 -28 -3z"/>
<path d="M1890 4158 c-12 -22 -12 -22 6 -6 10 10 15 20 12 24 -4 3 -12 -5 -18
-18z"/>
<path d="M3054 4159 c-3 -6 -1 -16 5 -22 8 -8 11 -5 11 11 0 24 -5 28 -16 11z"/>
<path d="M2085 3710 l-30 -8 30 -3 c17 -1 39 -3 50 -4 24 -2 55 -12 104 -33
20 -9 47 -17 61 -19 l25 -4 -24 25 c-32 34 -159 61 -216 46z"/>
<path d="M2778 3603 c-10 -2 -18 -11 -18 -19 0 -10 15 -14 58 -15 31 -1 62 0
67 1 6 1 27 4 47 7 26 4 35 10 31 19 -4 11 -26 14 -87 13 -44 -1 -89 -3 -98
-6z"/>
<path d="M2033 3568 c-32 -6 -62 -19 -79 -35 -34 -31 -25 -38 60 -46 44 -4 56
-3 47 6 -16 16 -14 27 5 27 9 0 18 -8 21 -19 2 -10 14 -23 26 -29 32 -16 97
-31 97 -23 0 4 6 16 14 26 12 16 16 17 30 6 22 -19 20 -31 -5 -28 -12 1 -24
-4 -26 -10 -3 -9 7 -13 30 -13 45 0 67 9 67 26 0 8 7 14 15 14 21 0 19 10 -7
38 -19 21 -20 24 -5 19 11 -4 16 -3 12 4 -4 5 -12 8 -18 6 -7 -2 -25 3 -42 11
-40 21 -119 33 -105 17 8 -9 -7 -12 -62 -12 -61 -1 -68 1 -40 9 28 7 46 20 25
17 -5 -1 -31 -6 -60 -11z"/>
<path d="M1694 3544 c-7 -26 6 -44 34 -44 20 0 14 48 -8 60 -17 9 -20 7 -26
-16z"/>
<path d="M2661 3474 c-17 -14 -31 -33 -31 -42 0 -12 2 -14 8 -4 6 8 13 1 25
-23 15 -32 20 -35 59 -35 38 0 40 1 23 14 -11 8 -23 12 -27 10 -13 -8 -9 11 4
24 18 18 38 14 38 -8 0 -25 25 -37 75 -36 31 1 42 6 51 24 11 23 12 23 25 4
18 -24 45 -38 91 -45 36 -5 37 -5 25 16 -20 36 -60 78 -89 93 -39 20 -48 17
-13 -5 17 -10 41 -31 55 -46 24 -26 23 -26 -40 9 -68 37 -88 43 -155 47 -31 2
-34 3 -12 6 47 7 29 23 -27 23 -44 0 -60 -5 -85 -26z"/>
<path d="M1677 3443 c-4 -3 -7 -11 -7 -17 0 -6 5 -5 12 2 6 6 9 14 7 17 -3 3
-9 2 -12 -2z"/>
<path d="M3485 3380 c-3 -5 -13 -6 -23 -3 -9 3 -14 3 -11 -1 13 -14 56 -15 75
-1 18 14 18 14 -8 15 -15 0 -29 -4 -33 -10z"/>
<path d="M3680 3381 c0 -5 7 -12 16 -15 14 -5 15 -4 4 9 -14 17 -20 19 -20 6z"/>
<path d="M2690 3355 c0 -2 12 -11 28 -19 33 -17 94 -28 86 -15 -3 5 -13 9 -22
9 -9 0 -26 7 -36 15 -19 14 -56 21 -56 10z"/>
<path d="M3202 3329 c2 -7 10 -15 17 -17 8 -3 12 1 9 9 -2 7 -10 15 -17 17 -8
3 -12 -1 -9 -9z"/>
<path d="M3476 3324 c-5 -12 -2 -15 10 -10 8 3 18 6 20 6 3 0 2 5 -1 10 -9 15
-22 12 -29 -6z"/>
<path d="M150 3320 c0 -4 -8 -10 -18 -12 -14 -4 -25 -30 -45 -104 -34 -129
-51 -223 -43 -231 10 -11 129 17 148 34 20 18 60 16 248 -11 58 -9 124 -16
148 -16 23 0 68 -9 100 -21 65 -24 114 -38 157 -46 17 -3 39 -12 50 -18 19
-13 125 -47 155 -51 28 -3 70 -23 70 -33 0 -11 38 -26 56 -23 6 1 24 -5 40
-13 16 -8 34 -15 41 -15 6 0 34 -11 61 -25 28 -14 65 -25 83 -25 19 0 52 -7
75 -15 44 -15 56 -15 150 5 90 18 90 18 71 87 -9 32 -19 96 -23 143 -4 47 -12
92 -20 100 -7 8 -16 28 -19 43 -5 18 -12 26 -21 23 -7 -3 -15 0 -18 7 -3 9 -8
8 -18 -3 -16 -19 -62 -14 -54 6 3 8 1 14 -5 14 -6 0 -17 7 -26 16 -10 10 -19
12 -26 5 -5 -5 -16 -7 -23 -4 -8 3 -21 0 -29 -7 -8 -6 -23 -9 -35 -5 -12 4
-42 7 -68 7 -31 0 -50 5 -59 16 -11 16 -12 16 -13 -1 0 -16 -7 -18 -47 -15
-32 2 -48 -1 -48 -9 0 -6 -3 -15 -7 -19 -5 -4 -8 2 -8 14 0 12 -4 22 -10 22
-5 0 -10 -6 -10 -12 0 -7 -11 0 -23 16 -18 21 -29 28 -45 24 -12 -4 -25 -2
-28 4 -4 5 -20 7 -36 4 -20 -4 -30 -1 -34 8 -5 12 -11 12 -40 0 -19 -8 -50
-15 -69 -16 -19 -1 -36 -7 -39 -15 -7 -18 -36 -16 -59 5 -11 9 -17 11 -13 5 4
-7 2 -13 -3 -13 -6 0 -11 5 -11 10 0 6 -13 9 -29 8 -16 -1 -28 -5 -25 -9 11
-18 -93 -27 -111 -10 -16 14 -63 22 -67 11 -5 -16 -78 11 -78 29 0 9 -7 27
-16 40 -12 17 -22 21 -41 16 -16 -4 -34 1 -54 16 -23 16 -38 20 -64 15 -27 -5
-35 -4 -35 8 0 10 6 13 16 9 14 -5 15 -3 7 12 -10 18 -63 31 -63 15z m490
-215 c0 -8 -9 -15 -20 -15 -20 0 -26 11 -13 23 12 13 33 7 33 -8z m50 -5 c0
-5 -4 -10 -9 -10 -6 0 -13 5 -16 10 -3 6 1 10 9 10 9 0 16 -4 16 -10z m-135
-30 c4 -6 -5 -10 -19 -10 -14 0 -26 5 -26 10 0 6 9 10 19 10 11 0 23 -4 26
-10z m703 -268 c3 -17 -2 -22 -17 -22 -14 0 -21 6 -21 18 0 38 33 41 38 4z
m78 -31 c-9 -14 -33 -14 -41 -1 -4 6 -1 18 6 26 11 13 14 13 27 0 8 -8 11 -19
8 -25z"/>
<path d="M3704 3318 c3 -15 26 -23 26 -8 0 6 -4 9 -9 6 -5 -4 -12 -1 -14 4 -3
6 -4 5 -3 -2z"/>
<path d="M4557 3316 c-4 -9 -31 -16 -79 -21 -40 -4 -86 -13 -103 -20 -16 -7
-47 -18 -67 -25 -24 -7 -35 -16 -32 -24 3 -8 -4 -16 -17 -19 -34 -9 -20 -16
37 -18 38 -2 54 -8 67 -25 16 -21 15 -22 -6 -23 -12 -1 -38 -3 -57 -5 -19 -3
-50 -5 -67 -5 -32 -1 -33 -2 -33 -43 -1 -68 -21 -77 -168 -75 -120 1 -122 2
-122 24 0 26 18 31 27 8 4 -12 20 -15 68 -14 l63 2 4 41 c5 49 -5 58 -55 52
-36 -4 -38 -3 -35 21 2 21 -3 28 -26 36 -20 7 -35 6 -48 -2 -15 -9 -18 -8 -18
5 0 11 -6 14 -20 9 -17 -5 -20 -2 -20 24 0 35 -15 50 -17 18 -1 -12 -5 -33 -8
-47 -6 -22 -8 -23 -16 -7 -9 15 -19 16 -59 11 -28 -4 -62 -2 -80 5 -25 8 -36
7 -56 -5 -19 -13 -32 -14 -64 -6 -29 7 -42 7 -47 -1 -14 -22 -1 -83 29 -134
16 -29 27 -57 24 -61 -3 -5 -1 -22 4 -38 6 -21 9 -24 10 -9 1 17 3 17 11 -5 6
-14 10 -27 11 -30 0 -3 7 -22 15 -43 9 -21 13 -40 10 -43 -6 -6 -37 60 -37 77
0 5 -11 11 -25 15 -20 5 -25 14 -30 52 -11 84 -17 105 -25 92 -8 -14 -20 9
-20 40 0 11 -12 31 -27 45 -15 14 -22 25 -15 25 7 0 10 5 7 10 -4 6 -12 4 -21
-5 -9 -8 -22 -15 -31 -15 -9 0 -21 -7 -28 -16 -11 -15 -12 -14 -11 6 2 42 -22
33 -34 -12 -6 -24 -15 -50 -20 -59 -5 -9 -7 -25 -6 -35 2 -11 0 -23 -4 -29
-17 -24 -18 -41 -1 -41 9 0 39 -2 66 -4 48 -3 49 -3 15 -9 l-35 -7 32 -5 c41
-7 53 1 57 34 6 56 14 35 14 -37 0 -60 -4 -76 -17 -82 -9 -4 -19 -6 -23 -6 -5
1 -8 -4 -8 -12 0 -7 -9 -16 -20 -19 -17 -4 -20 0 -20 23 0 26 -3 28 -27 23
-16 -3 -37 -6 -48 -8 -32 -3 -24 -30 10 -33 43 -5 64 -42 24 -42 -12 0 -17 4
-13 11 4 7 -9 10 -39 8 -32 -2 -52 2 -65 14 -20 18 -37 23 -27 8 9 -15 13 -91
5 -91 -4 0 -10 7 -14 15 -10 27 -30 11 -53 -44 -13 -30 -23 -58 -23 -63 0 -4
24 -8 53 -9 l52 -1 -40 -12 -40 -13 30 -12 c17 -6 40 -16 52 -22 15 -8 67 -8
190 0 353 24 488 31 552 30 36 -1 -19 -8 -124 -15 -104 -8 -218 -17 -252 -20
l-63 -6 0 -39 0 -39 -65 0 -65 0 0 35 0 35 -67 0 c-87 0 -106 -11 -60 -34 19
-9 40 -16 47 -16 15 0 80 -49 104 -79 18 -21 25 -23 78 -17 54 5 59 4 67 -16
l8 -22 5 22 c5 18 14 22 55 24 26 1 62 3 78 5 17 1 63 5 104 7 40 3 76 7 79
10 9 10 40 7 44 -5 5 -16 74 -29 173 -33 50 -2 100 -4 113 -5 14 0 26 -10 32
-26 9 -25 78 -75 103 -75 8 0 26 -9 40 -20 14 -11 34 -20 45 -20 11 0 32 -7
48 -15 20 -10 30 -11 35 -3 4 6 18 8 33 4 19 -5 28 -15 33 -36 6 -33 27 -39
41 -14 6 11 11 13 16 5 11 -17 40 -13 65 8 16 14 31 17 66 13 30 -3 45 -1 45
7 0 6 13 11 29 11 29 0 83 22 82 34 -1 3 -1 25 0 49 l1 42 9 -32 c7 -23 16
-33 29 -33 11 0 20 4 20 9 0 5 12 11 28 13 26 3 27 5 27 68 1 95 4 124 12 116
4 -4 10 -44 13 -89 5 -80 6 -82 30 -79 13 1 28 8 32 15 14 21 10 265 -4 270
-10 4 -10 6 0 6 7 1 12 16 12 41 0 38 -1 40 -32 41 -52 0 -162 10 -166 14 -2
2 -1 9 3 15 5 7 35 11 84 10 42 -1 82 -2 89 -1 16 1 16 70 0 181 l-13 85 -5
-55 c-5 -51 -7 -55 -32 -58 -24 -3 -28 0 -28 22 0 16 -6 26 -15 26 -8 0 -15 5
-15 10 0 6 6 10 13 10 10 0 14 17 16 58 0 31 4 69 7 85 6 27 5 27 -45 27 l-51
0 0 -45 c0 -41 2 -45 24 -45 19 0 23 -4 19 -20 -4 -13 -14 -20 -30 -20 -25 0
-25 -2 -21 -55 4 -47 2 -55 -11 -53 -10 2 -15 13 -14 28 4 43 4 203 0 206 -2
2 -26 5 -53 6 -46 3 -49 2 -46 -21 3 -27 -15 -54 -30 -45 -5 3 -8 20 -6 37 3
28 0 32 -24 35 -30 4 -39 22 -10 22 9 0 31 8 47 17 22 13 63 19 150 23 l120 6
-146 2 c-81 1 -161 5 -178 8 -35 7 -42 33 -11 41 43 11 13 40 -50 48 -25 4
-55 8 -66 11 -13 2 -24 -2 -27 -10z m-70 -42 c-3 -3 -12 -4 -19 -1 -8 3 -5 6
6 6 11 1 17 -2 13 -5z m-67 -44 c0 -5 -4 -10 -10 -10 -5 0 -10 5 -10 10 0 6 5
10 10 10 6 0 10 -4 10 -10z m180 -60 c0 -5 -4 -10 -10 -10 -5 0 -10 5 -10 10
0 6 5 10 10 10 6 0 10 -4 10 -10z m-60 -10 c0 -5 -2 -10 -4 -10 -3 0 -8 5 -11
10 -3 6 -1 10 4 10 6 0 11 -4 11 -10z m-270 -55 c0 -8 -4 -15 -10 -15 -5 0
-10 7 -10 15 0 8 5 15 10 15 6 0 10 -7 10 -15z m407 -37 c-3 -7 -5 -2 -5 12 0
14 2 19 5 13 2 -7 2 -19 0 -25z m-997 -23 c0 -8 4 -15 9 -15 5 0 11 7 15 15 4
11 21 15 61 15 40 0 57 -4 61 -15 4 -8 19 -15 34 -15 16 0 32 -4 35 -10 4 -6
-36 -10 -114 -10 -120 0 -139 5 -127 35 7 20 26 19 26 0z m630 -5 c11 -7 3
-10 -28 -10 -26 0 -41 4 -37 10 8 13 45 13 65 0z m-910 -25 c0 -16 -6 -25 -15
-25 -16 0 -19 9 -9 34 9 25 24 19 24 -9z m500 -110 c179 -13 181 -14 50 -10
-74 3 -170 5 -212 5 -62 0 -78 3 -78 15 0 11 7 13 28 9 15 -3 110 -12 212 -19z
m650 -6 c0 -5 -7 -9 -15 -9 -15 0 -20 12 -9 23 8 8 24 -1 24 -14z m240 -10 c0
-5 -7 -9 -15 -9 -9 0 -15 9 -15 21 0 18 2 19 15 9 8 -7 15 -16 15 -21z m-1330
-89 c17 -6 9 -7 -25 -3 -27 3 -52 7 -54 9 -8 7 54 2 79 -6z m165 -22 c13 -6 4
-7 -29 -3 -27 3 -62 5 -77 5 -16 0 -29 4 -29 9 0 11 105 2 135 -11z m60 -8 c3
-5 -1 -10 -9 -10 -9 0 -16 5 -16 10 0 6 4 10 9 10 6 0 13 -4 16 -10z m-330
-24 l50 -13 -42 -7 c-23 -4 -41 -13 -40 -19 1 -6 -6 -13 -16 -15 -21 -4 -46
24 -47 51 0 21 25 22 95 3z m1403 -21 c-3 -4 -23 -3 -44 1 l-39 8 35 6 c33 6
60 -3 48 -15z m102 5 c20 -7 16 -8 -22 -9 -27 -1 -48 4 -48 9 0 12 34 12 70 0z
m-792 -47 c-10 -2 -26 -2 -35 0 -10 3 -2 5 17 5 19 0 27 -2 18 -5z m-258 -13
c-8 -5 -35 -9 -60 -8 l-45 1 45 7 c73 11 78 11 60 0z m123 3 c-7 -2 -19 -2
-25 0 -7 3 -2 5 12 5 14 0 19 -2 13 -5z m-283 -13 c-14 -4 -41 -8 -60 -8 -32
0 -33 1 -10 8 14 4 41 8 60 8 32 0 33 -1 10 -8z m-131 -4 c-2 -2 -31 -6 -64
-9 -39 -4 -54 -3 -45 3 14 9 119 15 109 6z m-217 -17 c-40 -6 -69 -6 -80 0
-12 8 6 10 63 9 l80 0 -63 -9z m1245 5 c-3 -3 -12 -4 -19 -1 -8 3 -5 6 6 6 11
1 17 -2 13 -5z m-164 -11 c-7 -2 -21 -2 -30 0 -10 3 -4 5 12 5 17 0 24 -2 18
-5z m50 0 c-7 -2 -19 -2 -25 0 -7 3 -2 5 12 5 14 0 19 -2 13 -5z m-213 -14
c-47 -4 -116 -7 -155 -6 l-70 1 85 6 c47 3 117 6 155 7 l70 0 -85 -8z m-497
-61 c31 -15 36 -38 8 -38 -11 0 -26 -3 -35 -6 -13 -5 -16 1 -16 25 0 35 4 36
43 19z m1334 -80 c-3 -8 -6 -5 -6 6 -1 11 2 17 5 13 3 -3 4 -12 1 -19z m0 -40
c-3 -8 -6 -5 -6 6 -1 11 2 17 5 13 3 -3 4 -12 1 -19z m-272 -97 c3 -5 1 -12
-5 -16 -5 -3 -10 1 -10 9 0 18 6 21 15 7z"/>
<path d="M4753 3293 c9 -2 25 -2 35 0 9 3 1 5 -18 5 -19 0 -27 -2 -17 -5z"/>
<path d="M4977 3293 c-4 -3 -7 -11 -7 -17 0 -6 5 -5 12 2 6 6 9 14 7 17 -3 3
-9 2 -12 -2z"/>
<path d="M3700 3240 c-7 -14 -7 -20 0 -20 5 0 10 6 10 14 0 8 6 17 13 19 9 4
9 6 0 6 -7 1 -17 -8 -23 -19z"/>
<path d="M3487 3236 c-6 -16 2 -28 14 -20 12 7 11 34 0 34 -5 0 -11 -6 -14
-14z"/>
<path d="M4153 3193 c9 -2 25 -2 35 0 9 3 1 5 -18 5 -19 0 -27 -2 -17 -5z"/>
<path d="M4147 3124 c-4 -4 -7 -25 -7 -46 0 -21 -4 -38 -10 -38 -5 0 -10 -5
-10 -11 0 -6 10 -9 23 -7 18 2 23 10 25 47 3 42 -7 69 -21 55z"/>
<path d="M2280 3080 c0 -5 21 -10 48 -9 38 1 42 2 22 9 -36 12 -70 12 -70 0z"/>
<path d="M2536 3052 c-4 -6 14 -13 45 -17 48 -7 70 -2 56 11 -11 12 -94 16
-101 6z"/>
<path d="M3534 2995 c-3 -8 -2 -27 4 -42 9 -26 9 -25 8 14 -1 46 -3 51 -12 28z"/>
<path d="M3206 2867 c-20 -15 -14 -37 9 -37 18 0 24 11 16 33 -6 15 -9 16 -25
4z"/>
<path d="M2028 2842 c-24 -5 -32 -32 -9 -32 10 0 36 -14 57 -31 22 -17 51 -37
67 -45 26 -14 27 -14 27 11 0 16 -6 25 -15 25 -14 0 -19 14 -18 48 1 7 -9 14
-21 16 -43 9 -71 12 -88 8z"/>
<path d="M2410 2789 c0 -5 5 -7 10 -4 6 3 10 8 10 11 0 2 -4 4 -10 4 -5 0 -10
-5 -10 -11z"/>
<path d="M2448 2793 c7 -3 16 -2 19 1 4 3 -2 6 -13 5 -11 0 -14 -3 -6 -6z"/>
<path d="M2491 2784 c7 -8 20 -12 31 -8 10 3 25 0 33 -6 12 -10 18 -10 30 0
22 18 82 4 90 -21 12 -37 -85 -89 -107 -58 -6 10 -7 6 -2 -11 9 -33 9 -33 39
-26 15 4 23 11 19 17 -4 7 1 9 14 5 13 -5 39 2 71 19 28 14 59 25 69 25 23 0
42 19 42 41 0 20 -35 30 -106 30 -27 0 -91 1 -142 3 -80 4 -92 2 -81 -10z"/>
<path d="M1031 2751 c-10 -6 -9 -10 3 -14 8 -3 18 -2 21 3 8 13 -9 20 -24 11z"/>
<path d="M2220 2730 c0 -5 5 -10 11 -10 5 0 7 5 4 10 -3 6 -8 10 -11 10 -2 0
-4 -4 -4 -10z"/>
<path d="M1086 2711 c-11 -17 23 -20 56 -6 l33 14 -42 1 c-23 0 -44 -4 -47 -9z"/>
<path d="M1160 2665 c0 -11 11 -15 36 -15 31 0 35 2 24 15 -7 8 -23 15 -36 15
-15 0 -24 -6 -24 -15z"/>
<path d="M1265 2620 c4 -6 11 -8 16 -5 14 9 11 15 -7 15 -8 0 -12 -5 -9 -10z"/>
<path d="M780 2440 c0 -5 14 -10 32 -10 36 0 35 4 -4 14 -17 4 -28 2 -28 -4z"/>
<path d="M378 2363 c7 -3 16 -2 19 1 4 3 -2 6 -13 5 -11 0 -14 -3 -6 -6z"/>
<path d="M126 2313 c-16 -16 -4 -33 25 -33 23 0 30 4 27 17 -3 16 -40 28 -52
16z"/>
<path d="M595 2310 c3 -5 8 -10 11 -10 2 0 4 5 4 10 0 6 -5 10 -11 10 -5 0 -7
-4 -4 -10z"/>
<path d="M2906 2288 c-3 -17 -6 -34 -6 -39 0 -7 85 -69 96 -69 21 0 -43 123
-70 133 -9 4 -16 -5 -20 -25z"/>
<path d="M1060 2280 c0 -5 4 -10 9 -10 5 0 16 -3 24 -6 8 -3 17 2 20 10 5 12
-1 16 -23 16 -17 0 -30 -4 -30 -10z"/>
<path d="M1050 2250 c0 -5 5 -10 11 -10 5 0 7 5 4 10 -3 6 -8 10 -11 10 -2 0
-4 -4 -4 -10z"/>
<path d="M381 2246 c2 -2 18 -6 34 -10 22 -5 26 -4 15 4 -14 9 -59 15 -49 6z"/>
<path d="M47 2223 c6 -14 43 -18 43 -4 0 5 -11 11 -24 13 -17 4 -23 1 -19 -9z"/>
<path d="M870 2230 c0 -5 5 -10 10 -10 6 0 10 5 10 10 0 6 -4 10 -10 10 -5 0
-10 -4 -10 -10z"/>
<path d="M178 2223 c7 -3 16 -2 19 1 4 3 -2 6 -13 5 -11 0 -14 -3 -6 -6z"/>
<path d="M740 2220 c0 -5 5 -10 10 -10 6 0 10 5 10 10 0 6 -4 10 -10 10 -5 0
-10 -4 -10 -10z"/>
<path d="M1035 2199 c-10 -14 -1 -21 19 -13 9 3 13 10 10 15 -7 12 -21 11 -29
-2z"/>
<path d="M170 2162 c-8 -3 -18 -11 -23 -18 -4 -7 -14 -11 -22 -8 -8 3 -24 -1
-37 -10 -21 -15 -20 -16 32 -13 45 2 54 6 52 19 -1 9 5 18 15 20 10 2 14 6 8
9 -5 4 -17 4 -25 1z"/>
<path d="M350 2163 c8 -3 24 -10 35 -15 20 -9 20 -9 1 6 -11 9 -27 16 -35 15
-14 0 -14 -1 -1 -6z"/>
<path d="M640 2109 c0 -5 5 -7 10 -4 6 3 10 8 10 11 0 2 -4 4 -10 4 -5 0 -10
-5 -10 -11z"/>
<path d="M340 2090 c0 -5 5 -10 10 -10 6 0 10 5 10 10 0 6 -4 10 -10 10 -5 0
-10 -4 -10 -10z"/>
<path d="M164 2055 c-9 -14 -15 -27 -13 -29 2 -1 24 3 49 10 27 7 36 12 23 13
-13 1 -23 7 -23 16 0 23 -18 18 -36 -10z"/>
<path d="M296 2063 c-10 -10 5 -23 25 -23 12 0 19 5 17 12 -4 12 -33 20 -42
11z"/>
<path d="M393 2026 c-61 -16 -66 -29 -8 -21 87 11 101 15 84 26 -16 10 -21 10
-76 -5z"/>
<path d="M527 2024 c-4 -4 -4 -10 -1 -15 6 -10 34 0 34 12 0 10 -24 12 -33 3z"/>
<path d="M280 2010 c0 -5 7 -10 15 -10 8 0 15 5 15 10 0 6 -7 10 -15 10 -8 0
-15 -4 -15 -10z"/>
<path d="M89 1923 c6 -22 14 -29 39 -31 18 -2 30 -7 28 -11 -3 -4 11 -5 30 -3
25 3 34 9 34 23 0 23 -17 34 -55 35 -16 0 -42 4 -57 8 -26 8 -26 7 -19 -21z"/>
<path d="M850 1858 c6 -7 10 -22 10 -35 0 -13 5 -23 11 -23 13 0 2 41 -17 58
-9 7 -10 8 -4 0z"/>
<path d="M158 1843 c7 -3 16 -2 19 1 4 3 -2 6 -13 5 -11 0 -14 -3 -6 -6z"/>
<path d="M198 1833 c6 -2 18 -2 25 0 6 3 1 5 -13 5 -14 0 -19 -2 -12 -5z"/>
<path d="M806 1832 c-3 -6 1 -23 9 -39 47 -89 134 -296 156 -371 19 -66 41
-27 43 78 1 30 4 60 8 66 4 6 -10 29 -30 52 -20 22 -55 63 -77 91 -22 27 -45
50 -52 51 -7 0 -21 19 -31 41 -11 23 -22 37 -26 31z"/>
<path d="M987 1815 c-4 -8 -2 -17 3 -20 6 -4 10 3 10 14 0 25 -6 27 -13 6z"/>
<path d="M2980 1623 c-7 -32 -15 -62 -18 -67 -3 -5 -1 -6 5 -3 11 7 37 116 30
124 -3 2 -11 -22 -17 -54z"/>
<path d="M4383 1663 c-17 -6 -16 -30 1 -36 8 -3 16 -16 19 -29 3 -16 5 -12 5
12 2 40 -7 59 -25 53z"/>
<path d="M4000 1576 c-22 -21 -189 -96 -215 -96 -5 0 -21 -6 -35 -13 -31 -16
-142 -52 -152 -49 -5 1 -8 -3 -8 -10 0 -6 -3 -9 -6 -6 -3 3 -35 -5 -72 -19
-37 -14 -86 -31 -110 -39 -37 -11 -77 -30 -166 -76 -10 -5 -30 -12 -45 -14
-14 -3 -27 -9 -29 -15 -2 -5 -12 -9 -23 -9 -10 0 -19 -4 -19 -10 0 -5 -3 -9
-7 -8 -5 2 -35 -12 -68 -31 -55 -31 -205 -172 -205 -192 0 -17 19 -9 25 11 3
11 12 19 18 17 7 -1 12 3 11 8 -1 6 16 25 38 44 l39 34 -11 -29 c-6 -16 -17
-36 -24 -44 -7 -8 -24 -42 -36 -75 -13 -33 -34 -71 -46 -85 -17 -20 -23 -40
-26 -95 -3 -66 -2 -70 20 -71 18 -1 22 4 22 30 0 56 37 185 62 218 14 18 28
45 31 59 4 14 16 36 27 49 l20 23 0 -43 0 -43 21 19 c12 10 30 37 41 58 11 22
27 46 34 54 8 7 14 18 14 23 0 5 11 9 24 9 13 0 29 7 36 15 7 8 23 15 36 15
13 0 24 5 24 10 0 6 26 10 59 10 l58 0 6 -35 c3 -19 2 -62 -3 -97 -12 -78 -12
-88 -2 -86 4 0 15 -2 25 -7 10 -4 19 -6 20 -4 2 2 13 45 26 94 12 50 36 116
52 148 16 31 29 59 29 62 -1 3 4 13 10 23 8 13 10 13 9 2 -1 -8 3 -28 9 -43 7
-16 12 -33 12 -38 0 -5 15 -9 33 -9 37 0 57 27 57 75 0 20 5 25 24 25 14 0 28
-4 31 -10 3 -5 15 -10 26 -10 10 0 19 5 19 10 0 6 6 10 13 10 8 0 19 12 25 26
7 14 17 22 22 19 6 -3 10 -2 10 3 0 9 124 112 134 112 9 0 61 52 78 78 31 47
19 57 -22 18z m-963 -441 c-4 -8 -13 -15 -22 -15 -13 0 -12 3 3 18 19 21 27
20 19 -3z"/>
<path d="M4367 1503 c-4 -3 -7 -15 -7 -26 0 -19 1 -20 20 -2 11 10 20 22 20
27 0 10 -24 11 -33 1z"/>
<path d="M4655 1470 c3 -5 12 -7 20 -3 21 7 19 13 -6 13 -11 0 -18 -4 -14 -10z"/>
<path d="M4655 1410 c3 -5 8 -10 11 -10 2 0 4 5 4 10 0 6 -5 10 -11 10 -5 0
-7 -4 -4 -10z"/>
<path d="M4356 1395 c-9 -26 -7 -32 5 -12 6 10 9 21 6 23 -2 3 -7 -2 -11 -11z"/>
<path d="M4630 1371 c0 -10 3 -20 6 -23 8 -9 44 3 44 14 0 5 -4 6 -10 3 -5 -3
-10 -2 -10 3 0 6 -7 12 -15 16 -10 3 -15 -1 -15 -13z"/>
<path d="M4648 1283 c7 -3 16 -2 19 1 4 3 -2 6 -13 5 -11 0 -14 -3 -6 -6z"/>
<path d="M4680 1263 c0 -6 -6 -13 -14 -15 -8 -2 1 -10 20 -20 19 -10 34 -14
34 -10 -1 13 -40 57 -40 45z"/>
<path d="M918 1200 c2 -22 9 -40 14 -40 6 0 7 7 4 16 -3 9 -6 27 -6 40 0 13
-3 24 -8 24 -4 0 -6 -18 -4 -40z"/>
<path d="M2210 1173 c1 -61 20 -172 35 -204 16 -33 17 -34 85 -36 74 -2 104
13 75 37 -22 19 -18 33 15 52 28 16 29 16 35 -3 4 -10 10 -19 15 -19 4 0 3 11
-3 25 -7 14 -16 25 -20 25 -5 0 -5 5 -2 10 3 6 2 10 -4 10 -5 0 -11 -5 -13
-12 -3 -7 -12 -9 -22 -5 -14 5 -17 15 -14 38 3 16 1 32 -3 35 -7 4 -34 -35
-31 -46 0 -3 -4 -24 -9 -47 -10 -38 -13 -41 -42 -40 -35 2 -44 21 -46 95 -1
48 -24 112 -40 112 -6 0 -11 -12 -11 -27z"/>
<path d="M2547 1192 c-42 -3 -48 -6 -41 -20 5 -9 10 -59 12 -109 3 -74 1 -93
-10 -93 -8 0 -19 5 -26 12 -9 9 -12 8 -12 -7 0 -10 3 -15 7 -12 3 4 16 -2 29
-14 16 -15 32 -20 65 -17 l44 3 -3 95 c-2 71 1 102 13 124 8 15 15 29 15 31 0
6 -48 10 -93 7z"/>
<path d="M2674 1092 c0 -68 -4 -96 -18 -117 -10 -15 -15 -29 -12 -32 3 -3 27
-9 53 -14 27 -4 56 -10 66 -14 13 -5 17 -2 17 14 0 12 -4 21 -10 21 -5 0 -10
14 -10 30 0 36 15 40 24 5 11 -43 23 -28 40 53 9 42 19 87 22 98 5 20 1 22
-58 27 -34 3 -74 9 -88 12 l-25 6 -1 -89z m136 -2 c0 -23 -4 -30 -20 -30 -14
0 -20 7 -20 23 0 27 7 37 27 37 8 0 13 -12 13 -30z"/>
<path d="M2386 1157 c3 -10 9 -15 12 -12 3 3 0 11 -7 18 -10 9 -11 8 -5 -6z"/>
<path d="M911 1094 c0 -11 3 -14 6 -6 3 7 2 16 -1 19 -3 4 -6 -2 -5 -13z"/>
<path d="M4281 1088 c0 -9 -4 -25 -7 -35 -5 -17 -5 -17 6 0 6 10 9 25 7 35 -4
15 -5 15 -6 0z"/>
<path d="M4608 1093 c7 -3 16 -2 19 1 4 3 -2 6 -13 5 -11 0 -14 -3 -6 -6z"/>
<path d="M900 1014 c0 -31 -8 -64 -21 -89 -15 -29 -22 -59 -22 -110 -1 -64 2
-75 31 -118 29 -41 36 -46 53 -37 16 9 25 4 59 -32 37 -40 42 -42 54 -25 18
23 59 22 82 -4 10 -12 44 -32 73 -45 30 -14 69 -35 85 -48 17 -13 47 -31 66
-41 18 -10 41 -24 49 -32 13 -14 16 -13 22 5 10 25 47 38 63 22 8 -9 8 -14 -1
-17 -13 -5 80 -93 97 -93 6 0 10 -9 10 -20 0 -11 4 -20 9 -20 5 0 19 -16 31
-36 21 -33 23 -34 41 -18 14 12 28 15 58 10 39 -6 40 -5 47 28 8 43 28 52 57
25 12 -11 41 -35 64 -52 23 -18 46 -41 52 -52 8 -18 10 -17 16 13 9 37 11 38
33 16 14 -15 17 -15 27 0 17 22 28 20 20 -4 -3 -11 -2 -20 3 -20 8 0 19 -56
27 -144 3 -23 22 -36 56 -36 32 0 39 15 39 79 0 26 3 51 6 54 4 4 8 23 10 43
4 43 1 39 36 48 26 6 29 2 67 -75 44 -88 58 -109 73 -109 11 0 1 75 -14 104
-8 15 -6 22 8 33 27 19 32 17 50 -25 10 -24 16 -63 15 -109 l-1 -73 130 0
c138 0 137 0 131 50 -1 8 -3 33 -6 55 -3 22 -7 105 -10 185 -3 80 -7 155 -10
168 -5 21 -35 32 -35 12 0 -18 -40 -32 -55 -20 -8 6 -24 10 -37 9 -13 -2 -30
1 -38 6 -13 8 -13 7 0 -10 8 -11 36 -41 62 -69 45 -47 79 -102 85 -139 4 -22
-2 -22 -26 0 -11 10 -47 38 -81 63 -34 25 -81 62 -104 82 -50 44 -144 69 -261
69 -102 1 -194 24 -330 83 -66 29 -160 65 -210 80 -49 16 -133 43 -185 62
-159 56 -492 104 -558 80 -21 -8 -23 -7 -17 20 4 16 17 52 30 79 19 42 21 60
16 112 -8 77 -21 93 -21 27z"/>
<path d="M4261 973 c-1 -13 -5 -23 -11 -23 -5 0 -10 -7 -10 -15 0 -17 9 -19
27 -7 9 5 10 17 4 37 -8 25 -9 26 -10 8z"/>
<path d="M2592 830 c0 -14 2 -19 5 -12 2 6 2 18 0 25 -3 6 -5 1 -5 -13z"/>
<path d="M2375 819 c4 -13 9 -41 12 -61 7 -50 23 -49 23 2 0 22 -4 40 -10 40
-5 0 -10 6 -10 14 0 8 -5 18 -12 22 -8 5 -9 0 -3 -17z"/>
<path d="M2415 821 c-3 -5 -1 -12 5 -16 5 -3 10 1 10 9 0 18 -6 21 -15 7z"/>
<path d="M2461 814 c0 -11 3 -14 6 -6 3 7 2 16 -1 19 -3 4 -6 -2 -5 -13z"/>
<path d="M2745 820 c-3 -5 -1 -10 4 -10 6 0 11 5 11 10 0 6 -2 10 -4 10 -3 0
-8 -4 -11 -10z"/>
<path d="M2490 814 c0 -5 5 -15 11 -21 8 -8 8 -17 1 -30 -10 -17 -11 -17 -17
-1 -6 14 -10 15 -26 5 -18 -11 -18 -12 3 -34 12 -13 24 -23 28 -23 4 0 13 18
20 40 12 36 12 43 -3 58 -9 9 -17 12 -17 6z"/>
<path d="M2640 796 c0 -2 7 -6 15 -10 8 -3 15 -1 15 4 0 6 -7 10 -15 10 -8 0
-15 -2 -15 -4z"/>
<path d="M4169 755 c-13 -19 -29 -33 -36 -30 -7 2 -15 0 -18 -5 -3 -4 -1 -10
5 -12 6 -2 6 -15 0 -38 -5 -19 -6 -56 -2 -83 l7 -47 48 42 c26 24 62 56 80 71
18 16 25 25 17 21 -8 -5 -32 -9 -53 -10 -32 -2 -37 1 -32 15 9 22 19 111 13
111 -3 0 -16 -16 -29 -35z"/>
<path d="M2560 768 c0 -9 5 -20 10 -23 13 -8 13 5 0 25 -8 13 -10 13 -10 -2z"/>
<path d="M2614 739 c9 -26 -8 -122 -23 -127 -10 -3 -12 0 -8 11 3 9 0 21 -8
27 -10 8 -17 6 -29 -12 -9 -12 -16 -28 -16 -35 0 -18 -19 -16 -26 2 -4 8 -15
15 -26 15 -15 0 -18 5 -13 20 6 20 -9 50 -25 50 -4 0 -11 -15 -14 -32 -6 -28
-8 -30 -17 -15 -11 20 -39 23 -39 5 1 -7 13 -31 28 -53 29 -41 72 -60 72 -31
0 9 5 16 11 16 5 0 8 -4 5 -9 -7 -11 3 -41 14 -41 4 0 10 9 13 20 6 22 37 28
37 8 1 -9 5 -8 13 3 21 26 47 31 47 9 0 -11 5 -20 10 -20 6 0 10 11 10 24 0
44 19 37 26 -9 8 -54 10 -54 18 0 4 22 13 45 22 51 12 10 8 13 -23 21 -37 9
-38 10 -35 49 2 28 -2 45 -13 54 -13 11 -15 10 -11 -1z"/>
<path d="M2666 723 c1 -16 2 -36 3 -45 2 -30 18 -20 24 15 4 30 -6 57 -22 57
-4 0 -6 -12 -5 -27z"/>
<path d="M2715 740 c3 -5 8 -10 11 -10 2 0 4 5 4 10 0 6 -5 10 -11 10 -5 0 -7
-4 -4 -10z"/>
<path d="M2340 700 c0 -5 5 -10 11 -10 5 0 7 5 4 10 -3 6 -8 10 -11 10 -2 0
-4 -4 -4 -10z"/>
<path d="M2112 678 c-9 -9 -8 -16 4 -29 15 -16 14 -17 -8 -12 -14 4 -19 2 -13
-4 6 -5 51 -19 100 -32 50 -12 114 -33 144 -47 73 -33 75 -24 4 16 -32 18 -69
43 -83 56 -22 20 -110 64 -129 64 -4 0 -12 -5 -19 -12z"/>
<path d="M4225 680 c3 -5 8 -10 11 -10 2 0 4 5 4 10 0 6 -5 10 -11 10 -5 0 -7
-4 -4 -10z"/>
</g>
</svg>
